<svg xmlns="http://www.w3.org/2000/svg" xmlns:xlink="http://www.w3.org/1999/xlink" width="500" zoomAndPan="magnify" viewBox="0 0 375 374.999991" height="500" preserveAspectRatio="xMidYMid meet" version="1.0"><defs><g><g id="id1"/><g id="id2"/></g><clipPath id="id3"><path d="M 66.886719 60 L 221 60 L 221 169 L 66.886719 169 Z M 66.886719 60 " clip-rule="nonzero"/></clipPath><clipPath id="id4"><path d="M 155 119 L 308.386719 119 L 308.386719 228 L 155 228 Z M 155 119 " clip-rule="nonzero"/></clipPath><clipPath id="id5"><path d="M 163 23.125 L 272 23.125 L 272 177 L 163 177 Z M 163 23.125 " clip-rule="nonzero"/></clipPath><clipPath id="id6"><path d="M 104 111 L 213 111 L 213 264.625 L 104 264.625 Z M 104 111 " clip-rule="nonzero"/></clipPath></defs><g clip-path="url(#id3)"><path fill="rgb(0.779724%, 9.408569%, 34.899902%)" d="M 194.917969 60.371094 C 181.792969 60.371094 171.015625 70.429688 169.871094 83.257812 L 152.792969 83.257812 C 151.671875 73.871094 143.679688 66.585938 133.988281 66.585938 C 123.527344 66.585938 115.050781 75.066406 115.050781 85.527344 C 115.050781 88.574219 115.769531 91.449219 117.050781 94 L 100.085938 105.203125 C 97.375 102.222656 93.460938 100.34375 89.113281 100.34375 C 80.925781 100.34375 74.292969 106.980469 74.292969 115.167969 C 74.292969 121.238281 77.945312 126.460938 83.175781 128.75 L 78.59375 146.058594 C 78.394531 146.050781 78.195312 146.042969 77.996094 146.042969 C 71.855469 146.042969 66.878906 151.023438 66.878906 157.160156 C 66.878906 163.300781 71.855469 168.277344 77.996094 168.277344 C 84.136719 168.277344 89.113281 163.300781 89.113281 157.160156 C 89.113281 152.808594 86.613281 149.046875 82.96875 147.222656 L 87.550781 129.910156 C 88.066406 129.960938 88.585938 129.988281 89.113281 129.988281 C 97.296875 129.988281 103.933594 123.351562 103.933594 115.167969 C 103.933594 112.957031 103.449219 110.863281 102.585938 108.980469 L 119.546875 97.777344 C 123.023438 101.867188 128.203125 104.464844 133.988281 104.464844 C 143.679688 104.464844 151.671875 97.179688 152.792969 87.789062 L 169.871094 87.789062 C 171.015625 100.617188 181.792969 110.675781 194.917969 110.675781 C 208.8125 110.675781 220.074219 99.414062 220.074219 85.527344 C 220.074219 71.632812 208.8125 60.371094 194.917969 60.371094 " fill-opacity="1" fill-rule="nonzero"/></g><g clip-path="url(#id4)"><path fill="rgb(0.779724%, 9.408569%, 34.899902%)" d="M 180.328125 227.347656 C 193.457031 227.347656 204.234375 217.292969 205.378906 204.460938 L 222.457031 204.460938 C 223.578125 213.851562 231.570312 221.136719 241.261719 221.136719 C 251.71875 221.136719 260.199219 212.652344 260.199219 202.195312 C 260.199219 199.148438 259.476562 196.269531 258.203125 193.722656 L 275.160156 182.515625 C 277.875 185.5 281.785156 187.375 286.132812 187.375 C 294.320312 187.375 300.957031 180.738281 300.957031 172.554688 C 300.957031 166.480469 297.304688 161.261719 292.074219 158.96875 L 296.65625 141.660156 C 296.851562 141.667969 297.050781 141.675781 297.253906 141.675781 C 303.390625 141.675781 308.367188 136.699219 308.367188 130.558594 C 308.367188 124.421875 303.390625 119.441406 297.253906 119.441406 C 291.113281 119.441406 286.132812 124.421875 286.132812 130.558594 C 286.132812 134.910156 288.636719 138.675781 292.277344 140.5 L 287.695312 157.8125 C 287.183594 157.757812 286.664062 157.734375 286.132812 157.734375 C 277.949219 157.734375 271.316406 164.367188 271.316406 172.554688 C 271.316406 174.761719 271.796875 176.859375 272.664062 178.738281 L 255.699219 189.945312 C 252.226562 185.855469 247.046875 183.257812 241.261719 183.257812 C 231.570312 183.257812 223.578125 190.539062 222.457031 199.933594 L 205.378906 199.933594 C 204.234375 187.101562 193.457031 177.046875 180.328125 177.046875 C 166.4375 177.046875 155.175781 188.304688 155.175781 202.195312 C 155.175781 216.089844 166.4375 227.347656 180.328125 227.347656 " fill-opacity="1" fill-rule="nonzero"/></g><g clip-path="url(#id5)"><path fill="rgb(30.589294%, 81.568909%, 95.689392%)" d="M 271.113281 151.15625 C 271.113281 138.027344 261.054688 127.25 248.226562 126.105469 L 248.226562 109.027344 C 257.613281 107.90625 264.898438 99.917969 264.898438 90.222656 C 264.898438 79.765625 256.417969 71.285156 245.960938 71.285156 C 242.910156 71.285156 240.035156 72.007812 237.484375 73.285156 L 226.277344 56.324219 C 229.261719 53.609375 231.140625 49.699219 231.140625 45.351562 C 231.140625 37.164062 224.503906 30.527344 216.316406 30.527344 C 210.246094 30.527344 205.027344 34.179688 202.734375 39.410156 L 185.425781 34.828125 C 185.433594 34.632812 185.441406 34.433594 185.441406 34.230469 C 185.441406 28.09375 180.464844 23.117188 174.324219 23.117188 C 168.183594 23.117188 163.207031 28.09375 163.207031 34.230469 C 163.207031 40.371094 168.183594 45.351562 174.324219 45.351562 C 178.675781 45.351562 182.4375 42.847656 184.265625 39.207031 L 201.578125 43.789062 C 201.523438 44.300781 201.496094 44.820312 201.496094 45.351562 C 201.496094 53.535156 208.132812 60.167969 216.316406 60.167969 C 218.527344 60.167969 220.621094 59.6875 222.503906 58.820312 L 233.707031 75.78125 C 229.617188 79.257812 227.019531 84.4375 227.019531 90.222656 C 227.019531 99.917969 234.304688 107.90625 243.695312 109.027344 L 243.695312 126.105469 C 230.867188 127.25 220.808594 138.027344 220.808594 151.15625 C 220.808594 165.046875 232.070312 176.308594 245.960938 176.308594 C 259.851562 176.308594 271.113281 165.046875 271.113281 151.15625 " fill-opacity="1" fill-rule="nonzero"/></g><g clip-path="url(#id6)"><path fill="rgb(30.589294%, 81.568909%, 95.689392%)" d="M 104.136719 136.566406 C 104.136719 149.695312 114.195312 160.46875 127.023438 161.613281 L 127.023438 178.695312 C 117.632812 179.8125 110.351562 187.800781 110.351562 197.496094 C 110.351562 207.957031 118.828125 216.433594 129.289062 216.433594 C 132.335938 216.433594 135.214844 215.714844 137.765625 214.4375 L 148.96875 231.398438 C 145.984375 234.109375 144.109375 238.019531 144.109375 242.371094 C 144.109375 250.558594 150.746094 257.195312 158.929688 257.195312 C 165.003906 257.195312 170.226562 253.539062 172.515625 248.308594 L 189.824219 252.894531 C 189.816406 253.089844 189.808594 253.289062 189.808594 253.488281 C 189.808594 259.625 194.785156 264.605469 200.925781 264.605469 C 207.0625 264.605469 212.042969 259.625 212.042969 253.488281 C 212.042969 247.347656 207.0625 242.371094 200.925781 242.371094 C 196.574219 242.371094 192.808594 244.871094 190.984375 248.515625 L 173.671875 243.933594 C 173.722656 243.421875 173.75 242.898438 173.75 242.371094 C 173.75 234.1875 167.117188 227.550781 158.929688 227.550781 C 156.722656 227.550781 154.628906 228.035156 152.746094 228.902344 L 141.539062 211.9375 C 145.628906 208.464844 148.226562 203.285156 148.226562 197.496094 C 148.226562 187.800781 140.945312 179.8125 131.550781 178.695312 L 131.550781 161.613281 C 144.382812 160.46875 154.441406 149.695312 154.441406 136.566406 C 154.441406 122.671875 143.179688 111.410156 129.289062 111.410156 C 115.398438 111.410156 104.136719 122.671875 104.136719 136.566406 " fill-opacity="1" fill-rule="nonzero"/></g><g fill="rgb(0.779724%, 9.408569%, 34.899902%)" fill-opacity="1"><g transform="translate(159.562494, 297.028516)"><g><path d="M 5.890625 -17.625 L 5.890625 -10.609375 L 15.984375 -10.609375 L 15.984375 -8.140625 L 5.890625 -8.140625 L 5.890625 0 L 3.015625 0 L 3.015625 -20.125 L 17.21875 -20.125 L 17.21875 -17.625 Z M 5.890625 -17.625 "/></g></g></g><g fill="rgb(0.779724%, 9.408569%, 34.899902%)" fill-opacity="1"><g transform="translate(177.816288, 297.028516)"><g><path d="M 10.875 -20.125 C 13.476562 -20.125 15.523438 -19.5 17.015625 -18.25 C 18.515625 -17.007812 19.265625 -15.296875 19.265625 -13.109375 C 19.265625 -10.921875 18.515625 -9.203125 17.015625 -7.953125 C 15.523438 -6.710938 13.476562 -6.09375 10.875 -6.09375 L 5.890625 -6.09375 L 5.890625 0 L 3.015625 0 L 3.015625 -20.125 Z M 10.78125 -8.59375 C 12.601562 -8.59375 13.992188 -8.976562 14.953125 -9.75 C 15.910156 -10.53125 16.390625 -11.648438 16.390625 -13.109375 C 16.390625 -14.566406 15.910156 -15.679688 14.953125 -16.453125 C 13.992188 -17.234375 12.601562 -17.625 10.78125 -17.625 L 5.890625 -17.625 L 5.890625 -8.59375 Z M 10.78125 -8.59375 "/></g></g></g><g fill="rgb(0.779724%, 9.408569%, 34.899902%)" fill-opacity="1"><g transform="translate(198.570994, 297.028516)"><g><path d="M 7.015625 -17.625 L 0.109375 -17.625 L 0.109375 -20.125 L 16.765625 -20.125 L 16.765625 -17.625 L 9.859375 -17.625 L 9.859375 0 L 7.015625 0 Z M 7.015625 -17.625 "/></g></g></g><g fill="rgb(10.5896%, 62.348938%, 76.858521%)" fill-opacity="1"><g transform="translate(64.664008, 331.589246)"><g><path d="M 14.34375 -2.03125 L 14.34375 0 L 2.453125 0 L 2.453125 -16.375 L 14.015625 -16.375 L 14.015625 -14.34375 L 4.796875 -14.34375 L 4.796875 -9.3125 L 13 -9.3125 L 13 -7.328125 L 4.796875 -7.328125 L 4.796875 -2.03125 Z M 14.34375 -2.03125 "/></g></g></g><g fill="rgb(10.5896%, 62.348938%, 76.858521%)" fill-opacity="1"><g transform="translate(83.400197, 331.589246)"><g><path d="M 16.53125 -16.375 L 16.53125 0 L 14.625 0 L 4.796875 -12.203125 L 4.796875 0 L 2.453125 0 L 2.453125 -16.375 L 4.375 -16.375 L 14.203125 -4.15625 L 14.203125 -16.375 Z M 16.53125 -16.375 "/></g></g></g><g fill="rgb(10.5896%, 62.348938%, 76.858521%)" fill-opacity="1"><g transform="translate(105.457861, 331.589246)"><g><path d="M 5.703125 -14.34375 L 0.09375 -14.34375 L 0.09375 -16.375 L 13.640625 -16.375 L 13.640625 -14.34375 L 8.015625 -14.34375 L 8.015625 0 L 5.703125 0 Z M 5.703125 -14.34375 "/></g></g></g><g fill="rgb(10.5896%, 62.348938%, 76.858521%)" fill-opacity="1"><g transform="translate(122.252631, 331.589246)"><g><path d="M 14.34375 -2.03125 L 14.34375 0 L 2.453125 0 L 2.453125 -16.375 L 14.015625 -16.375 L 14.015625 -14.34375 L 4.796875 -14.34375 L 4.796875 -9.3125 L 13 -9.3125 L 13 -7.328125 L 4.796875 -7.328125 L 4.796875 -2.03125 Z M 14.34375 -2.03125 "/></g></g></g><g fill="rgb(10.5896%, 62.348938%, 76.858521%)" fill-opacity="1"><g transform="translate(140.988817, 331.589246)"><g><path d="M 13.40625 0 L 9.875 -5.03125 C 9.4375 -5 9.09375 -4.984375 8.84375 -4.984375 L 4.796875 -4.984375 L 4.796875 0 L 2.453125 0 L 2.453125 -16.375 L 8.84375 -16.375 C 10.957031 -16.375 12.625 -15.863281 13.84375 -14.84375 C 15.0625 -13.832031 15.671875 -12.441406 15.671875 -10.671875 C 15.671875 -9.398438 15.359375 -8.320312 14.734375 -7.4375 C 14.109375 -6.550781 13.21875 -5.90625 12.0625 -5.5 L 15.953125 0 Z M 8.765625 -6.96875 C 10.253906 -6.96875 11.382812 -7.285156 12.15625 -7.921875 C 12.9375 -8.566406 13.328125 -9.484375 13.328125 -10.671875 C 13.328125 -11.847656 12.9375 -12.753906 12.15625 -13.390625 C 11.382812 -14.023438 10.253906 -14.34375 8.765625 -14.34375 L 4.796875 -14.34375 L 4.796875 -6.96875 Z M 8.765625 -6.96875 "/></g></g></g><g fill="rgb(10.5896%, 62.348938%, 76.858521%)" fill-opacity="1"><g transform="translate(161.058273, 331.589246)"><g><path d="M 5.703125 -14.34375 L 0.09375 -14.34375 L 0.09375 -16.375 L 13.640625 -16.375 L 13.640625 -14.34375 L 8.015625 -14.34375 L 8.015625 0 L 5.703125 0 Z M 5.703125 -14.34375 "/></g></g></g><g fill="rgb(10.5896%, 62.348938%, 76.858521%)" fill-opacity="1"><g transform="translate(177.853038, 331.589246)"><g><path d="M 12.890625 -4.09375 L 4.1875 -4.09375 L 2.390625 0 L -0.015625 0 L 7.390625 -16.375 L 9.703125 -16.375 L 17.140625 0 L 14.6875 0 Z M 12.0625 -5.96875 L 8.53125 -13.984375 L 5 -5.96875 Z M 12.0625 -5.96875 "/></g></g></g><g fill="rgb(10.5896%, 62.348938%, 76.858521%)" fill-opacity="1"><g transform="translate(198.039442, 331.589246)"><g><path d="M 2.453125 -16.375 L 4.796875 -16.375 L 4.796875 0 L 2.453125 0 Z M 2.453125 -16.375 "/></g></g></g><g fill="rgb(10.5896%, 62.348938%, 76.858521%)" fill-opacity="1"><g transform="translate(208.354997, 331.589246)"><g><path d="M 16.53125 -16.375 L 16.53125 0 L 14.625 0 L 4.796875 -12.203125 L 4.796875 0 L 2.453125 0 L 2.453125 -16.375 L 4.375 -16.375 L 14.203125 -4.15625 L 14.203125 -16.375 Z M 16.53125 -16.375 "/></g></g></g><g fill="rgb(10.5896%, 62.348938%, 76.858521%)" fill-opacity="1"><g transform="translate(230.412658, 331.589246)"><g><path d="M 17.640625 0 L 17.609375 -11.921875 L 11.6875 -1.984375 L 10.625 -1.984375 L 4.703125 -11.859375 L 4.703125 0 L 2.453125 0 L 2.453125 -16.375 L 4.375 -16.375 L 11.203125 -4.859375 L 17.9375 -16.375 L 19.859375 -16.375 L 19.875 0 Z M 17.640625 0 "/></g></g></g><g fill="rgb(10.5896%, 62.348938%, 76.858521%)" fill-opacity="1"><g transform="translate(255.815176, 331.589246)"><g><path d="M 14.34375 -2.03125 L 14.34375 0 L 2.453125 0 L 2.453125 -16.375 L 14.015625 -16.375 L 14.015625 -14.34375 L 4.796875 -14.34375 L 4.796875 -9.3125 L 13 -9.3125 L 13 -7.328125 L 4.796875 -7.328125 L 4.796875 -2.03125 Z M 14.34375 -2.03125 "/></g></g></g><g fill="rgb(10.5896%, 62.348938%, 76.858521%)" fill-opacity="1"><g transform="translate(274.551362, 331.589246)"><g><path d="M 16.53125 -16.375 L 16.53125 0 L 14.625 0 L 4.796875 -12.203125 L 4.796875 0 L 2.453125 0 L 2.453125 -16.375 L 4.375 -16.375 L 14.203125 -4.15625 L 14.203125 -16.375 Z M 16.53125 -16.375 "/></g></g></g><g fill="rgb(10.5896%, 62.348938%, 76.858521%)" fill-opacity="1"><g transform="translate(296.609023, 331.589246)"><g><path d="M 5.703125 -14.34375 L 0.09375 -14.34375 L 0.09375 -16.375 L 13.640625 -16.375 L 13.640625 -14.34375 L 8.015625 -14.34375 L 8.015625 0 L 5.703125 0 Z M 5.703125 -14.34375 "/></g></g></g></svg>